<svg id="Layer_1" enable-background="new 0 0 512 512" height="512" viewBox="0 0 512 512" width="512" xmlns="http://www.w3.org/2000/svg"><g><path d="m477.347 488.678c-12.112-18.169-29.082-32.392-49.068-41.129l-102.001-44.626c-4.637-2.028-9.986-1.582-14.222 1.189s-6.79 7.492-6.79 12.554v16.067c0 27.166-22.101 49.267-49.267 49.267s-49.267-22.101-49.267-49.267v-16.067c0-5.062-2.553-9.783-6.79-12.554-4.236-2.771-9.585-3.217-14.222-1.189l-101.999 44.625c-19.986 8.738-36.956 22.96-49.068 41.129-4.596 6.893-2.733 16.206 4.16 20.802 2.557 1.705 5.448 2.521 8.307 2.521h417.76c2.859 0 5.75-.816 8.307-2.521 6.893-4.595 8.756-13.908 4.16-20.801z" fill="#283741"/><path d="m473.188 509.479c6.893-4.596 8.755-13.909 4.16-20.802-12.112-18.169-29.082-32.392-49.068-41.129l-102.001-44.626c-4.637-2.028-9.986-1.582-14.222 1.189s-6.79 7.492-6.79 12.554v16.067c0 27.166-22.101 49.267-49.267 49.267v30.001h208.88c2.859 0 5.75-.816 8.308-2.521z" fill="#0a141e"/><path d="m400.6 271h-32.133c-8.284 0-15-6.716-15-15v-64.267c0-8.284 6.716-15 15-15h32.133c25.989 0 47.133 21.144 47.133 47.133s-21.144 47.134-47.133 47.134z" fill="#c36e64"/><path d="m143.533 271h-32.133c-25.989 0-47.133-21.144-47.133-47.133s21.144-47.133 47.133-47.133h32.133c8.284 0 15 6.716 15 15v64.266c0 8.284-6.716 15-15 15z" fill="#e19682"/><path d="m368.467 128.533h-224.934c-8.284 0-15 6.716-15 15v160.667c0 5.199 2.692 10.027 7.114 12.76 4.426 2.736 9.947 2.979 14.594.657l64.266-32.134c25.982-12.99 57.004-12.99 82.984.001l64.267 32.133c4.65 2.325 10.171 2.076 14.594-.657s7.114-7.561 7.114-12.76v-160.667c.001-8.284-6.715-15-14.999-15z" fill="#ffbea0"/><path d="m297.492 285.483 64.267 32.133c4.65 2.325 10.171 2.076 14.594-.657s7.114-7.561 7.114-12.76v-160.666c0-8.284-6.716-15-15-15h-112.467v147.207c14.251 0 28.502 3.247 41.492 9.743z" fill="#e19682"/><circle clip-rule="evenodd" cx="207.8" cy="207.8" fill="#283741" fill-rule="evenodd" r="15"/><circle clip-rule="evenodd" cx="304.2" cy="207.8" fill="#0a141e" fill-rule="evenodd" r="15"/><path d="m383.467 143.533h-254.934v-128.533c0-8.284 6.716-15 15-15h224.934c8.284 0 15 6.716 15 15z" fill="#283741"/><path d="m448.8 110.333c-8.284 0-15-6.716-15-15v-80.333c0-8.284 6.716-15 15-15s15 6.716 15 15v80.333c0 8.284-6.716 15-15 15z" fill="#465a64"/><g><path d="m320.267 362.567h-128.534c-8.284 0-15 6.716-15 15v55.167c0 43.777 35.489 79.266 79.267 79.266s79.267-35.489 79.267-79.267v-55.167c0-8.283-6.716-14.999-15-14.999z" fill="#e19682"/><path d="m335.267 432.732v-55.167c0-8.284-6.716-15-15-15h-64.267v149.435c43.777 0 79.267-35.49 79.267-79.268z" fill="#c36e64"/></g><path d="m256 143.533h127.467v-128.533c0-8.284-6.716-15-15-15h-112.467z" fill="#0a141e"/><path d="m448.8 30h-385.6c-8.284 0-15-6.716-15-15s6.716-15 15-15h385.6c8.284 0 15 6.716 15 15s-6.716 15-15 15z" fill="#465a64"/><path d="m256 30h192.8c8.284 0 15-6.716 15-15s-6.716-15-15-15h-192.8z" fill="#283741"/><path d="m255.983 406.584c-24.377 0-48.753-5.555-70.974-16.665-22.36-11.182-56.492-35.595-56.492-85.717 0-5.682 3.21-10.875 8.292-13.417l64.267-32.133c34.382-17.194 75.436-17.194 109.818.001l64.265 32.132c5.082 2.541 8.292 7.735 8.292 13.417 0 50.18-34.208 74.572-56.491 85.716-22.222 11.111-46.6 16.666-70.977 16.666z" fill="#f0f5fa"/><path d="m383.451 304.203c0-5.682-3.21-10.875-8.292-13.417l-64.265-32.132c-17.191-8.598-36.05-12.896-54.91-12.896v160.827c24.377 0 48.755-5.555 70.976-16.666 22.283-11.145 56.491-35.536 56.491-85.716z" fill="#dfe3e9"/></g></svg>